<svg xmlns="http://www.w3.org/2000/svg" xmlns:xlink="http://www.w3.org/1999/xlink" version="1.1" x="0px" y="0px" viewBox="0 0 100 125" style="enable-background:new 0 0 100 100;" xml:space="preserve"><g><path d="M73.286,74.282c-1.201-0.057-2.372-0.111-3.484-0.198c-4.623-0.36-8.408-1.407-10.77-2.221   c-0.157-0.054-0.252-0.195-0.242-0.357c0.184-2.861,0.335-12.897-5.419-21.919c-4.329-6.788-10.451-10.832-13.802-12.359   c0.093-0.79,0.041-1.433-0.031-1.916c-0.081-0.541-0.281-1.343-1.641-4.034c-0.44-0.873-0.908-1.73-1.378-2.576   c0.536-1.068,1.481-3.042,1.72-4.135c0.349-1.597,0.018-2.526-0.052-2.696c-0.105-0.256-0.312-0.457-0.571-0.555   c-0.26-0.098-0.547-0.084-0.795,0.038l-6.319,3.105c-0.339,0.166-0.724,0.238-1.101,0.198c-6.956-0.666-13.347,2.096-18.027,7.777   c-5.658,6.867-7.81,17.045-5.355,25.326c1.356,4.574,3.889,8.817,7.325,12.333l2.212,9.013c0.028,0.231-0.361,0.936-0.594,1.357   c-0.627,1.134-1.574,2.848-0.203,4.133c0.357,0.334,0.792,0.42,1,0.461c0.809,0.16,1.63,0.321,2.487,0.321   c0.275,0,0.555-0.022,0.839-0.061c-0.138,0.332-0.233,0.681-0.233,1.044c0,1.496,1.058,2.601,2.696,2.813   c0.588,0.076,1.196,0.128,1.816,0.153c0.143,0.079,0.3,0.137,0.476,0.137c0.17,0,0.322-0.053,0.462-0.127   c1.094-0.033,2.234-0.206,3.427-0.664c1.255-0.482,1.999-1.508,1.975-2.692c0.206,0.044,0.412,0.079,0.618,0.116   c0.108,0.038,0.221,0.057,0.333,0.057c0.003,0,0.005-0.002,0.008-0.002c0.259,0.042,0.518,0.095,0.778,0.126   c1.383,0.163,3.12,0.057,4.334-0.062c0.864-0.084,1.731,0.039,2.573,0.366c2.181,0.845,5.131,1.644,8.494,1.644   c1.868,0,3.864-0.247,5.925-0.868c2.086-0.626,4.034-1.545,5.797-2.739c0.251-0.173,0.563-0.265,0.897-0.265   c4.059,0.023,8.16,0.493,12.191,1.396c1.772,0.392,3.153,0.766,4.655,1.255c0.056,0.892,0.266,1.759,0.68,2.527   c0.472,0.876,1.272,1.683,2.254,2.271c1.459,0.874,3.288,1.297,5.143,1.297c2.511,0,5.071-0.775,6.826-2.258   c2.221-1.875,2.822-4.507,1.691-7.411C89.64,75.05,80.572,74.624,73.286,74.282z M27.15,86.744l-0.123-0.366   c-0.176-0.523-0.743-0.803-1.267-0.63c-0.523,0.176-0.805,0.743-0.63,1.267l0.084,0.251c-0.124,0.017-0.249,0.029-0.374,0.041   v-0.379c0-0.552-0.448-1-1-1s-1,0.448-1,1v0.375c-0.112-0.009-0.222-0.016-0.336-0.027l0.005-0.014   c0.174-0.524-0.111-1.09-0.635-1.263c-0.357-0.12-0.724-0.014-0.982,0.224c0.016-0.08,0.022-0.163,0.064-0.233l1.236-2.081   c0.079-0.133,0.126-0.282,0.137-0.436l0.708-9.473c0.023-0.311-0.099-0.614-0.332-0.821c-1.877-1.675-3.997-3.591-4.27-3.88   c-0.337-0.407-0.939-0.482-1.369-0.162c-0.442,0.332-0.532,0.958-0.201,1.4c0.067,0.09,0.242,0.323,4.14,3.806l-0.628,8.418   c-0.159,0.098-0.314,0.18-0.467,0.252c-0.11-0.328-0.372-0.596-0.735-0.669c-0.543-0.109-1.069,0.24-1.179,0.781   c-0.016,0.079-0.024,0.161-0.037,0.242c-0.033-0.002-0.065-0.002-0.098-0.004c0.038-0.46-0.23-0.902-0.691-1.039   c-0.382-0.117-0.776,0.015-1.027,0.295c0.119-0.356,0.359-0.806,0.568-1.184c0.501-0.907,1.02-1.846,0.787-2.794l-2.031-8.275   c0.18-0.377,0.123-0.837-0.193-1.144c-3.472-3.381-6.01-7.539-7.339-12.025c-2.274-7.671-0.272-17.11,4.981-23.486   c2.857-3.468,6.415-5.732,10.344-6.661c-1.05,0.554-2.123,1.301-3.099,2.325c-0.381,0.399-0.366,1.033,0.034,1.414   c0.193,0.185,0.442,0.276,0.69,0.276c0.264,0,0.527-0.104,0.724-0.31c0.695-0.729,1.454-1.289,2.21-1.728   c-0.317,0.478-0.596,1.01-0.799,1.618c-0.56,1.678-0.366,3.218-0.104,4.215c0.118,0.449,0.523,0.746,0.967,0.746   c0.084,0,0.169-0.01,0.254-0.033c0.534-0.14,0.854-0.687,0.713-1.221c-0.192-0.734-0.337-1.863,0.067-3.074   c0.633-1.896,2.28-2.901,3.347-3.371l1.08,4.286c0.114,0.453,0.521,0.755,0.969,0.755c0.081,0,0.164-0.01,0.246-0.03   c0.535-0.135,0.86-0.679,0.725-1.214l-1.276-5.061c0.476-0.048,0.942-0.17,1.373-0.382l4.962-2.438   c-0.015,0.102-0.035,0.209-0.06,0.323c-0.193,0.881-1.136,2.845-1.679,3.913c-0.093,0.113-0.16,0.242-0.196,0.381   c-0.006,0.012-0.016,0.031-0.022,0.042c-0.257,0.489-0.068,1.094,0.42,1.35c0.017,0.009,0.035,0.008,0.052,0.015   c0.426,0.77,0.851,1.545,1.251,2.338c1.329,2.628,1.415,3.208,1.448,3.428c0.105,0.703,0.149,1.693-0.454,3.127   c-0.166,0.395-0.208,0.833-0.119,1.232c0.197,0.876,0.43,1.523,0.617,2.043l0.196,0.547c0.02,0.054,0.032,0.089,0.048,0.135   c-0.194-0.016-0.386,0-0.509,0.125c-0.21,0.214-0.586,0.446-0.598,0.78c-0.007,0.182,0.127,0.351,0.198,0.511   c0.057,0.129,0.111,0.26,0.171,0.388c-0.029,0.037-0.069,0.063-0.093,0.104c-0.932,1.585-3.51,1.727-4.63,1.357   c-1.194-0.392-1.74-0.716-2.193-1.082c-0.305-0.247-0.726-0.292-1.075-0.116c-0.098,0.049-2.437,1.193-4.954,0.134   c-2.453-1.034-3.221-3.339-3.35-3.791c-0.152-0.531-0.703-0.84-1.236-0.687c-0.531,0.151-0.839,0.705-0.687,1.236   c0.173,0.606,1.202,3.697,4.497,5.085c2.569,1.083,4.959,0.463,6.044,0.06c0.619,0.412,1.336,0.736,2.33,1.062   c0.54,0.178,1.193,0.277,1.889,0.277c1.521,0,3.235-0.482,4.393-1.639c0.385,1.797,0.402,4.533-0.563,7.852   c-1.309,4.506-4.149,7.025-5.725,8.125c-0.887,0.619-1.488,1.534-1.693,2.578l-3.473,17.685c-0.042,0.213-0.013,0.435,0.082,0.63   l1.006,2.072l0.033,0.557C27.734,86.397,27.378,86.632,27.15,86.744z M89.921,89.314c-2.417,2.042-6.929,2.403-9.651,0.773   c-0.913-0.547-1.344-1.176-1.52-1.503c-0.88-1.632-0.503-4.023,0.877-5.564c0.619-0.691,1.94-1.736,3.842-0.967   c0.868,0.352,1.56,1.063,2.177,2.239c0.256,0.489,0.859,0.679,1.35,0.42c0.489-0.256,0.677-0.861,0.42-1.35   c-0.837-1.596-1.883-2.631-3.197-3.163c-2.182-0.885-4.457-0.33-6.083,1.486c-0.839,0.936-1.387,2.084-1.658,3.275   c-1.396-0.44-2.73-0.795-4.391-1.162c-4.167-0.935-8.412-1.42-12.62-1.444c-0.748,0-1.453,0.214-2.032,0.614   c-1.588,1.074-3.352,1.906-5.245,2.474c-5.226,1.579-10.02,0.477-13.12-0.725c-1.119-0.435-2.325-0.607-3.49-0.491   c-1.116,0.109-2.699,0.208-3.907,0.065c-0.166-0.02-0.332-0.056-0.498-0.081c-0.178-0.402-0.08-1.245,0.381-2.014   c0.682-1.136,2.351-1.035,2.844-0.979c1.141,0.133,2.252,0.381,3.428,0.645c0.677,0.151,1.353,0.303,2.034,0.432   c0.547,0.103,1.066-0.254,1.168-0.797c0.102-0.543-0.255-1.066-0.797-1.168c-0.659-0.124-1.313-0.271-1.968-0.417   c-0.317-0.071-0.643-0.138-0.965-0.207c-1.703-3.23-1.99-6.684-0.799-10.019c1.417-3.967,4.85-7.341,9.181-9.026   c0.515-0.2,0.77-0.78,0.57-1.294c-0.201-0.516-0.782-0.771-1.294-0.57c-4.865,1.892-8.73,5.711-10.34,10.217   c-1.199,3.358-1.083,6.936,0.277,10.261c-0.089-0.012-0.175-0.032-0.265-0.042c-2.125-0.249-3.914,0.477-4.79,1.937   c-0.469,0.784-0.755,1.721-0.749,2.599c-0.001,0-0.002-0.001-0.003-0.001l-0.474-0.976l3.409-17.356   c0.104-0.532,0.415-1.002,0.875-1.323c1.792-1.25,5.02-4.11,6.501-9.207c1.114-3.833,1.17-7.666,0.191-10.184   c0.186-0.317,0.335-0.694,0.388-1.135c0.08-0.662-0.097-1.148-0.301-1.711l-0.194-0.542c-0.177-0.492-0.377-1.05-0.536-1.823   c0.045-0.106,0.077-0.205,0.116-0.308c3.176,1.519,8.666,5.264,12.618,11.46c5.429,8.51,5.284,18.008,5.11,20.716   c-0.067,1.054,0.585,2.031,1.586,2.375c2.472,0.852,6.433,1.947,11.266,2.324c1.132,0.088,2.324,0.144,3.546,0.202   c7.057,0.332,15.056,0.707,17.848,7.878C91.858,86.261,91.482,87.996,89.921,89.314z"/><path d="M32.705,39.642c0.481,0.765,1.868,0.828,2.349,0.019c0.238-0.401,0.177-0.948-0.107-1.286   c-0.501-0.597-1.731-0.561-2.414-0.396c-0.342,0.083-0.579,0.264-0.395,0.611C32.323,38.939,32.494,39.307,32.705,39.642z"/><path d="M94.584,7.507c-0.985-0.902-2.38-0.598-3.303-0.396L91.006,7.17c-4.75,0.974-10.135,2.077-14.625,4.968   c-0.86,0.56-1.783,1.193-2.491,1.936c-1.451-1.774-3.122-3.694-5.927-3.722c-2.322-0.043-4.66,1.521-5.727,3.748l-0.14,0.293   c-0.08,0.167-0.159,0.333-0.252,0.521c-0.141,0.303-0.288,0.605-0.431,0.906c-0.015-0.001-0.028-0.009-0.044-0.009   c-2.056-0.02-2.415,0.036-3.763,0.292l-0.403,0.076c-1.052,0.205-2.09,0.371-3.129,0.538c-0.974,0.156-1.948,0.313-2.939,0.5   c-1.104,0.209-1.87,0.751-2.154,1.525c-0.187,0.508-0.243,1.32,0.548,2.301c2.069,2.59,4.35,5.191,7.457,6.061   c1.247,0.358,2.312,0.617,3.44,0.891c0.557,0.135,1.129,0.274,1.748,0.431c0.25,0.063,0.51,0.14,0.779,0.219   c0.849,0.25,1.859,0.547,2.926,0.547c0.741,0,1.509-0.149,2.271-0.551c0.091,0.134,0.267,0.382,0.586,0.538   c0.219,0.108,0.434,0.139,0.614,0.139c0.168,0,0.306-0.026,0.39-0.043c0.327-0.064,0.648-0.154,0.969-0.247   c-0.896,0.561-1.878,1.013-2.906,1.472c-1.747,0.78-3.554,1.587-5.052,3.069c-0.203,0.201-0.31,0.479-0.295,0.764   s0.151,0.55,0.375,0.728c1.546,1.235,3.902,1.963,7.004,2.165c1.106,0.071,2.136-0.009,3.061-0.24   c0.185-0.046,0.413-0.141,0.645-0.245c0.075-0.034,0.184-0.082,0.277-0.114c0.057,0.037,0.122,0.076,0.198,0.118   c0.456,0.247,0.905,0.528,1.357,0.81c0.93,0.581,1.893,1.182,2.968,1.555c0.148,0.051,0.349,0.133,0.592,0.231   c0.94,0.38,2.513,1.017,4.07,1.211c0.041,0.005,0.083,0.008,0.124,0.008c0.292,0,0.572-0.128,0.763-0.354   c0.218-0.258,0.292-0.608,0.195-0.932c-0.528-1.775-1.182-3.871-2.024-5.964c-0.225-0.56-0.509-1.122-0.783-1.666   c-0.467-0.924-0.949-1.88-1.1-2.752c-0.122-0.703,0.031-1.474,0.192-2.291c0.132-0.668,0.268-1.358,0.274-2.086   c0.005-0.574-0.049-1.134-0.129-1.684c0.302,0.201,0.587,0.365,0.861,0.521c0.758,0.458,1.684,0.725,2.604,0.749   c1.398,0.04,3.035-1.381,4.58-2.844l0.342-0.321c1.397-1.326,2.583-2.81,3.528-4.416c1.332-2.284,3.035-5.647,2.458-8.476   C94.846,7.838,94.74,7.649,94.584,7.507z M63.518,26.725c-0.295-0.087-0.58-0.17-0.853-0.239c-0.583-0.148-1.124-0.28-1.651-0.408   l0.56-1.299c0.218-0.507-0.016-1.096-0.522-1.314c-0.508-0.219-1.096,0.015-1.314,0.522l-0.691,1.603   c-0.487-0.126-0.983-0.258-1.515-0.411c-1.073-0.301-2.038-0.885-2.946-1.63c0.203-0.109,0.45-0.243,0.764-0.417   c0.622-0.343,1.778-0.981,2.059-1.053c0.546-0.082,0.923-0.59,0.842-1.136c-0.082-0.547-0.595-0.925-1.136-0.842   c-0.507,0.076-1.257,0.467-2.731,1.28c-0.418,0.231-0.985,0.544-1.168,0.621c-0.064,0.016-0.116,0.053-0.174,0.081   c-0.665-0.713-1.31-1.489-1.952-2.292c-0.174-0.216-0.213-0.343-0.23-0.352c0.049-0.052,0.238-0.179,0.648-0.257   c0.972-0.184,1.929-0.337,2.884-0.491c1.061-0.17,2.12-0.34,3.187-0.548l0.4-0.076c0.997-0.189,1.336-0.251,2.477-0.258   c-0.145,0.313-0.12,0.679,0.07,0.968c0.194,0.295,0.522,0.456,0.883,0.449c0.903-0.043,1.658-0.24,2.525-0.526   c0.23-0.079,0.434-0.144,0.611-0.144c0.052,0.001,0.104,0.007,0.187,0.044c0.316,0.152,1.137,1.003,1.231,1.249   c0.038,1.503,0.673,2.925,1.562,4.274c-1.026-1.251-1.973-1.684-3.715-1.813c-0.551-0.041-1.03,0.372-1.071,0.923   c-0.041,0.551,0.373,1.031,0.923,1.071c0.588,0.044,1.002,0.108,1.366,0.276c-0.053,0.001-0.096-0.002-0.15-0.001   c-0.552,0.018-0.985,0.479-0.968,1.031c0.017,0.552,0.48,0.994,1.031,0.968c1.29-0.042,1.764,0.119,1.847,0.153   c0.021,0.015,0.047,0.021,0.069,0.035c0.035,0.062,0.084,0.131,0.129,0.201C65.895,27.411,64.734,27.083,63.518,26.725z    M69.626,27.253c-0.286-0.425-0.574-0.848-0.887-1.254c-0.124-0.16-0.189-0.296-0.249-0.415c-0.058-0.114-0.132-0.244-0.219-0.378   c-0.012-0.031-0.022-0.062-0.038-0.091c0.354,0.467,0.726,0.927,1.107,1.376c0.193,0.225,0.39,0.451,0.588,0.677   C69.826,27.196,69.73,27.23,69.626,27.253z M70.858,24.652c0.649-0.066,1.385,0.666,1.726,1.409   c0.201,0.502,0.384,1.029,0.559,1.577c-0.185-0.169-0.364-0.349-0.543-0.529c-0.087-0.152-0.208-0.268-0.351-0.354   c-0.479-0.508-0.939-1.039-1.389-1.562c-0.101-0.119-0.199-0.239-0.298-0.359C70.669,24.791,70.77,24.732,70.858,24.652z    M69.384,23.302c-0.244-0.351-0.461-0.704-0.655-1.057c0.115,0.099,0.246,0.181,0.403,0.221c0.498,0.125,0.819,0.21,1.051,0.287   C69.928,22.829,69.599,22.999,69.384,23.302z M91.369,14.323c-0.981-0.25-1.438-0.388-1.888-0.524   c-0.521-0.158-1.042-0.316-2.319-0.636c-0.534-0.134-1.079,0.192-1.213,0.728c-0.134,0.536,0.192,1.079,0.728,1.213   C87.9,15.41,88.4,15.562,88.9,15.713c0.376,0.114,0.757,0.229,1.416,0.404c-0.694,1.074-1.511,2.084-2.438,3.01   c-0.479-0.32-1.17-0.804-1.765-1.221c-0.979-0.687-1.544-1.082-1.793-1.22c-0.483-0.269-1.092-0.094-1.36,0.388   c-0.269,0.483-0.094,1.092,0.388,1.36c0.169,0.094,0.972,0.657,1.616,1.109c0.562,0.395,1.032,0.723,1.422,0.99   c-1.173,1.038-1.964,1.551-2.352,1.569c-0.574-0.015-1.166-0.183-1.649-0.475c-0.635-0.36-1.052-0.608-1.596-1.128   c-0.013-0.013-0.031-0.017-0.045-0.029c-0.038-0.033-0.064-0.075-0.107-0.103c-1.327-0.846-1.87-1.394-2.856-2.39l-0.589-0.591   c-0.392-0.39-1.024-0.388-1.414,0.004s-0.388,1.025,0.004,1.414l0.579,0.581c0.529,0.534,0.966,0.973,1.476,1.408   c0.538,1.069,0.818,2.349,0.806,3.705c-0.005,0.542-0.117,1.112-0.236,1.716c-0.189,0.959-0.385,1.952-0.201,3.019   c0.202,1.166,0.752,2.257,1.285,3.313c0.267,0.53,0.52,1.03,0.713,1.511c0.568,1.413,1.05,2.837,1.465,4.159   c-0.751-0.228-1.451-0.511-1.988-0.729c-0.281-0.114-0.515-0.208-0.686-0.267c-0.863-0.299-1.689-0.815-2.564-1.362   c-0.488-0.304-0.973-0.606-1.546-0.927c-0.351-0.312-0.673-0.338-1.028-0.339c-0.001,0-0.001,0-0.002,0   c-0.412,0-0.794,0.171-1.132,0.323c-0.114,0.051-0.223,0.106-0.314,0.13c-0.724,0.181-1.546,0.242-2.446,0.185   c-2.008-0.13-3.622-0.489-4.819-1.069c1.04-0.748,2.23-1.28,3.473-1.834c1.441-0.644,2.917-1.328,4.228-2.375   c0.142,0.072,0.291,0.12,0.444,0.12c0.301,0,0.598-0.135,0.795-0.393c0.029-0.039,0.038-0.084,0.061-0.126   c0.016,0.008,0.033,0.021,0.048,0.028c0.161,0.076,0.332,0.114,0.503,0.114c0.156,0,0.313-0.031,0.463-0.094   c0.259-0.107,0.426-0.278,0.505-0.36c0.496-0.51,0.876-0.98,1.243-1.753c0.237-0.499,0.024-1.095-0.475-1.332   c-0.499-0.237-1.096-0.025-1.332,0.475c-0.037,0.078-0.073,0.15-0.11,0.219c-0.165-0.51-0.347-1.009-0.542-1.498   c-0.006-0.015-0.003-0.031-0.01-0.046c-0.019-0.043-0.046-0.086-0.066-0.129c-0.48-1.167-1.068-2.263-1.909-3.21   c-0.795-0.894-1.281-1.047-2.845-1.439c-0.534-0.133-1.079,0.191-1.213,0.727c-0.026,0.101-0.02,0.201-0.014,0.3   c-0.251-0.585-0.415-1.169-0.429-1.745c-0.019-1.183-1.736-2.752-2.432-3.04c-0.041-0.018-0.083-0.026-0.125-0.042   c-0.227-0.784-0.654-1.381-1.328-1.828c0.747-1.494,2.34-2.597,3.866-2.546c1.978,0.02,3.235,1.562,4.566,3.194   c0.109,0.134,0.218,0.263,0.327,0.395c-0.025,0.212-0.02,0.411-0.008,0.582c0.035,0.529,0.475,0.935,0.997,0.935   c0.022,0,0.044,0,0.066-0.002c0.551-0.036,0.969-0.512,0.933-1.063c-0.012-0.176-0.001-0.231,0.006-0.253   c0.453-0.899,1.876-1.826,2.637-2.321c4.172-2.685,9.362-3.749,13.938-4.687l0.303-0.064c0.326-0.072,0.922-0.204,1.282-0.167   C93.126,10.668,92.141,12.869,91.369,14.323z"/><circle cx="66.201" cy="14.134" r="0.735"/><path d="M26.279,32.494c-0.054,0.547,0.345,1.036,0.893,1.092c0.035,0.004,0.069,0.005,0.103,0.005   c0.507,0,0.941-0.383,0.994-0.898c0.009-0.084,0.079-0.848-0.116-1.725c-0.119-0.54-0.655-0.882-1.192-0.76   c-0.54,0.119-0.879,0.653-0.76,1.192C26.326,31.963,26.28,32.481,26.279,32.494z"/></g><text x="0" y="115" fill="#000000" font-size="5px" font-weight="bold" font-family="'Helvetica Neue', Helvetica, Arial-Unicode, Arial, Sans-serif">Created by Maxim Kulikov</text><text x="0" y="120" fill="#000000" font-size="5px" font-weight="bold" font-family="'Helvetica Neue', Helvetica, Arial-Unicode, Arial, Sans-serif">from the Noun Project</text></svg>